<?xml version="1.0" encoding="utf-8"?>
<!-- Generator: Adobe Illustrator 19.2.1, SVG Export Plug-In . SVG Version: 6.00 Build 0)  -->
<svg version="1.1" id="layer" xmlns="http://www.w3.org/2000/svg" xmlns:xlink="http://www.w3.org/1999/xlink" x="0px" y="0px"
	 viewBox="0 0 652 652" style="enable-background:new 0 0 652 652;" xml:space="preserve">
<style type="text/css">
	.st0{fill:#6C1583;}
</style>
<g>
	<path class="st0" d="M124.8,244.6c-5.8-10.7-15.3-10.7-21,0L23.5,393c-5.8,10.7-0.6,19.4,11.5,19.4h158.5
		c12.1,0,17.3-8.7,11.5-19.4L124.8,244.6z"/>
	<path class="st0" d="M267.4,399c-5.8,10.7-15.2,10.7-21,0l-80.2-148.1c-5.8-10.7-0.6-19.4,11.5-19.4H336c12.1,0,17.3,8.7,11.5,19.4
		L267.4,399z"/>
	<path class="st0" d="M611.2,311.4c10.4,6,10.4,15.8,0,21.8l-128.3,73.7c-10.4,6-18.9,1.1-18.9-11V248.6c0-12,8.6-17,18.9-11
		L611.2,311.4z"/>
	<path class="st0" d="M433.2,391c0,11.7-9.6,21.3-21.3,21.3h-19.1c-11.7,0-21.3-9.6-21.3-21.3V252.9c0-11.8,9.6-21.3,21.3-21.3h19.1
		c11.7,0,21.3,9.6,21.3,21.3V391z"/>
	<path class="st0" d="M602,401.5c0-5.6,4.1-9.8,9.6-9.8c5.6,0,9.6,4.1,9.6,9.7c0,5.6-4.1,9.8-9.6,9.8
		C605.9,411.2,602,407.1,602,401.5 M619.4,401.5c0-4.7-3.3-8.2-7.9-8.2c-4.7,0-7.8,3.3-7.8,8.2c0,4.7,3.3,8.2,7.9,8.2
		C616.2,409.6,619.4,406.3,619.4,401.5 M613.2,405.7l-2.2-2.9h-1.2v2.7c0,0.6-0.3,1-0.9,1h-0.3c-0.6,0-0.9-0.5-0.9-1.2v-7.7
		c0-0.8,0.4-1.2,1.2-1.2h3.1c2.6,0,4,1,4,3.2c0,1.6-1,2.7-2.7,3l2.6,3.1c0.1,0.1-0.5,0.8-1.2,0.8
		C614.2,406.5,613.6,406.3,613.2,405.7 M609.8,401.1h2.1c1.2,0,1.9-0.6,1.9-1.5c0-1-0.7-1.5-2-1.5h-2V401.1z"/>
</g>
</svg>
